<svg width="24" height="24" xmlns="http://www.w3.org/2000/svg">

 <g>
  <title>background</title>
  <rect fill="none" id="canvas_background" height="402" width="582" y="-1" x="-1"/>
 </g>
 <g>
  <title>Layer 1</title>
  <path id="svg_1" fill="none" d="m0,0l24,0l0,24l-24,0l0,-24z"/>
  <path fill="#b388ff" id="svg_2" d="m12,12c2.21,0 4,-1.79 4,-4s-1.79,-4 -4,-4s-4,1.79 -4,4s1.79,4 4,4zm0,2c-2.67,0 -8,1.34 -8,4l0,1c0,0.55 0.45,1 1,1l14,0c0.55,0 1,-0.45 1,-1l0,-1c0,-2.66 -5.33,-4 -8,-4z"/>
 </g>
</svg>